<?xml version="1.0" encoding="utf-8"?>
<!-- Generator: Adobe Illustrator 21.0.0, SVG Export Plug-In . SVG Version: 6.00 Build 0)  -->
<svg version="1.1" id="Layer_1" xmlns="http://www.w3.org/2000/svg" xmlns:xlink="http://www.w3.org/1999/xlink" x="0px" y="0px"
	 viewBox="0 0 1280 1024" style="enable-background:new 0 0 1280 1024;" xml:space="preserve">
<style type="text/css">
	.st0{opacity:0.23;fill:#FFFFFF;}
</style>
<path class="st0" d="M1131.6,486.8c-5.4-4.1-10-9.6-17.2-10.5c-11.1-1.4-21.8,1.3-27.1,12c-5.7,11.5-15.1,11.3-23.8,13.9
	c-15.7,4.6-31.6,8.4-47.4,12.7c-7.7,2.1-15.4,4.2-23,6.5c-2.4,0.7-2.7-0.9-3.8-2.4c-10.9-15.3-27.6-17.5-41.6-5.2
	c-2.9,2.6-4.3,0.9-6.5-0.9c-22.7-19.3-45.4-38.6-68.1-57.8c-12.8-10.9-25.5-21.8-38.4-32.6c-2.3-1.9-2.6-3.6-1.4-6.6
	c4.5-11.1,2.1-23.2-4.5-30.3c-7.3-7.8-6.5-13.7-3.7-22c9.6-27.7,19-55.5,28.5-83.2c0.6-1.8,0.7-3.8,1.5-5.4
	c3.1-6.5,3.1-14.3,13.1-16.2c16-3,23.1-12.7,23.7-28.3c0.4-12.1-4.1-22.6-13.8-29.1c-3-2-3.1-3.3-2.1-6.7
	c8.2-27.4,16.2-54.8,24.2-82.3c1.1-3.8,3.1-3.4,5.9-3.1c17.7,1.8,32.7-11.3,32.2-30c-0.5-20.6-16.5-37.6-36-30.3
	c-10.8,4.1-17.7,11.3-19.6,24c-0.6,4.2-3.9,3.2-5.9,3.4c-39.2,4.4-78.5,8.6-117.7,12.8c-12.1,1.3-24.2,2.3-36.3,4
	c-2.9,0.4-3.6-0.6-4.7-3c-9.7-20.5-29.8-20.5-43.1-8c-4,3.7-7.4,5.6-12.4,5.3c-29.9-1.9-59.8-3.6-89.7-5.4c-1.5-0.1-3.6,0.2-4.3-2.4
	c-3.9-15.1-14.5-19.6-26.8-21.6c-5.7,2.4-11.4,4.7-17.1,7.1c-4.2,6.5-9.3,12.3-9.6,21.2c-0.4,12.7,3.7,23,12.9,30.4
	c2.4,1.9,3.4,2.5,2.4,6.3c-7,26.5-13.7,53.1-20.4,79.7c-0.8,3-2,3.7-4.9,4.1c-14.4,2-26.2,10-27.4,28.4c-0.2,2.9-0.9,5.8,0.6,8.4
	c4.9,8.5,1.8,13.2-4.7,18.9c-29.3,25.7-58,52.2-87,78.4c-15.5,14-31.1,28.1-46.7,42c-1.6,1.5-3.2,2.8-5.9,0.5
	c-10.1-8.7-23.3-8.7-33.8-0.6c-8,6.1-12.8,21.1-10.4,30.5c5.4,21,16.4,26.8,28.4,25.9c18.2-1.4,32.5-18.8,25.1-40
	c-2-5.7-1.3-8.8,3-12.6c29.6-26.4,58.9-53.2,88.4-79.7c15.9-14.3,32.1-28.3,47.9-42.6c2.6-2.4,3.9-2.8,7-0.5
	c14.6,10.8,33.6,4.8,41.4-13c1.4-3.3,2.9-3.8,5.9-3.1c31,7.2,62.1,14.3,93.1,21.5c3.4,0.8,5.7,1.4,6.1,7.3
	c0.6,7.4,2.6,15.9,9.1,20.9c3.9,3,3.9,6.6,2.5,11c-12,38.1-24.1,76.1-35.9,114.3c-14,45.1-27.6,90.4-41.6,135.5
	c-11.6,37.5-23.4,74.9-35.1,112.3c-4.9,15.6-9.9,31.1-14.6,46.7c-0.6,2.1-0.8,3.1-3.2,2.9c-11.6-1.3-21,3.6-27.9,13.9
	c-1.4,2.2-2.3,1.9-4.1,1.1c-24.7-11-49.3-22.1-74.1-32.8c-2.2-1-2.2-1.7-2.3-3.9c-0.3-18.6-11.2-32.2-27.6-32.2
	c-18.5,0-33.1,17.9-26.9,39.3c3.6,12.4,10.3,20.8,22,22.4c12.5,1.7,22.8-3.4,29.3-15.8c1.3-2.4,2.3-2.8,4.6-1.8
	c16.6,7.4,33.3,14.7,50,22.1c7.2,3.2,14.4,6.5,21.6,9.9c1.9,0.9,4,1.4,3.6,4.8c-1.1,9.6,2.3,17.8,7.5,25.2c2,2.9,0.2,4.4-1.1,6.1
	c-26.8,36.1-53.7,72.1-80.4,108.3c-2.2,3-3.6,1.6-5.4,0.6c-16.9-9.4-41.1,4.9-39.9,27.8c0.8,15.4,7.8,28.2,23,31.3
	c2.1,0.4,4.1,0.9,6.2,1.4c5.7-2.4,11.4-4.7,17.1-7.1c3.5-5.9,8-10.8,9.4-18.3c1.6-8.5-1-15.8-4.1-22.9c-2-4.4-1.4-7.3,1.1-10.6
	c14.1-18.8,28-37.7,42.1-56.6c12.3-16.5,24.7-32.8,36.9-49.3c1.9-2.5,3.4-3.8,6.9-2.4c13,4.8,27.7-2,33.7-15.8
	c2.4-5.4,5.9-4,9.2-3.8c14.1,1,28.2,2.3,42.3,3.5c19.9,1.7,39.7,3.5,59.6,5.2c3.2,0.3,5.5,0.1,6.1,5.6c1.8,16.1,11.8,27.2,24.3,28.7
	c13,1.6,25-6.2,30-19.5c3.5-9.3,0.7-25.4-5.5-32.4c-8.3-9.3-17.7-12.9-29.3-8.3c-7.8,3-13.8,7.6-17,16.2c-1.2,3.3-3.3,2.5-5.3,2.3
	c-25-2.1-50-4.3-75-6.4c-10.2-0.9-20.5-1.6-30.8-2.4c-3-0.2-5-0.5-5.9-5.3c-1.3-6.8-2.3-15.1-8.2-19.2c-6.9-4.9-5.7-10.3-3.6-17
	c14.3-45.3,28.5-90.6,42.7-136c12.4-39.7,24.7-79.4,36.9-119.2c13.9-45.2,27.7-90.4,41.6-135.5c1.2-3.8,2.4-7.7,3.6-11.5
	c1-3.2,2.3-5.5,6.1-4.6c8,1.9,14.8-2.5,21.3-6.4c2.5-1.5,3.8-2.2,6.1,0c24.3,22.5,48.6,44.9,72.9,67.4c6.5,6,12.6,12.4,19.3,17.9
	c3,2.4,2.9,3.9,1.6,6.9c-8.1,18.2,4.3,44.8,24.7,44.7c7,0,13.2-2.9,18.5-7.1c2.8-2.3,4.4-1.6,6.3,0c35.8,30.5,71.6,61.1,107.4,91.5
	c2.3,2,1.9,3.7,1.2,6.2c-3.7,13.5-0.4,25.1,8.7,34.6c3,3.2,3.6,5.3,1.9,9.6c-6.7,17.2-15,33.7-20,51.8c-1.2,4.2-3.2,5-7.1,4.5
	c-17-2.2-31,10.2-31.5,29.2c-0.5,21,16.4,38.5,35.8,31.1c11.3-4.3,18.3-12,19.7-25.4c0.4-3.8,2.4-4.5,5.3-4.8
	c26.3-2.8,52.6-5.8,78.9-8.6c4.6-0.5,8.1-0.7,11.3,5.9c4.6,9.6,14.1,12.5,23.6,13.7c5.7-2.4,11.4-4.7,17.1-7.1
	c0.1-0.4,0.1-1,0.3-1.3c12.7-13,12-29.5,1.8-45c-1.4-2.1-0.7-3.4-0.1-5.1c6.8-21.1,13.6-42.2,20.5-63.2c1.4-4.2,2.9-7.6,7.9-8.9
	c5.4-1.4,10.9-3.3,15.4-8.3c5.9-6.6,7-14.8,8.6-23.2C1136,499.6,1133.8,493.2,1131.6,486.8z M779.3,161.9c-2,0.8-2.1,1-3.7-0.4
	c-8.8-7.7-18.2-9.7-28.3-4.1c-3.8,2.1-6.4,0.9-8.9-2.4c-6.7-9-13.4-18-20.2-27c-1.4-1.8-2.4-2.8-0.7-5.4c3.3-5.2,4.7-11.2,4.7-17.7
	c0-2.8,0.7-4.2,4-4.5c13.8-1.1,27.6-2.9,41.4-4.5c36.5-4.2,72.9-8.4,109.4-12.4c2.4-0.3,5.9-1.7,7,2.9c0.9,4-2.5,4.7-4.3,6
	c-6.7,5-13.8,9.5-20.6,14.2C832.4,125.1,805.8,143.5,779.3,161.9z M791.7,378c-3.6,4.9-6.4,0.7-9-1.6
	c-27.8-25.6-55.4-51.5-83.4-76.9c-6.5-5.9-11.6-10.7-7.6-21.3c1.4-3.8,2.3-5.7,5.9-6.6c22.6-5.2,45.1-10.4,67.5-16.4
	c5.3-1.4,7.3,0.1,8.3,5.2c7.4,36.5,14.6,73.1,22.3,109.6C796.9,375.2,796.4,377.3,791.7,378z M846.8,203.1c-1.4,1.8-2.2,2-3.4,1.7
	c-18.4-4.6-36.8-9-55.2-13.6c-1.5-0.4-3-1-2.4-3.4c1.2-5.1-1.1-9.5-2.8-13.8c-1.5-3.8-0.2-5.8,2.5-7.7
	c32.2-22.2,64.3-44.5,96.6-66.5c1.8-1.2,4.1-4.6,7.2-1.2c3,3.4,6.6,6,4.8,12c-8.6,27.7-17,55.5-25.5,83.3c-0.5,1.7,0,3.6-2.9,3.2
	C858.2,196.1,852.5,201.1,846.8,203.1z M781,251.7c17.5-4.3,33.8-8.2,50-12.3c5.2-1.3,8.5-0.5,10.2,6.3c1.1,4.4,5.2,7.7,9.1,9.7
	c3.4,1.8,3,3.5,1.9,6.7c-5.7,17-11,34.2-16.8,51.1c-6.4,19-13.3,37.9-19.7,56.9c-1.6,4.8-4.4,3.1-7.3,3c-3-0.1-5.4-0.4-6.2-4.5
	c-2.2-10.9-4.5-21.8-6.8-32.8c-5.3-26.3-10.5-52.6-16.1-78.8C778.3,253.1,778.3,251.4,781,251.7z M601.8,171.3c-1.3-1.4,1-2.8,2.6-4
	c20.7-15,41.4-29.8,62.2-44.7c1-0.7,3-1.8,3.1-1.7c3.7,6.5,9.3,10.5,15,14.3c0.3,0.2-0.2,1.8-0.3,2.7
	c-5.8,33.4-11.5,66.9-17.4,100.3c-1.5,8.4-9.3,4.7-13.7,8c-3.1,2.3-4.2-2.4-5.5-4.3c-5.6-8.2-10.8-16.6-16.2-24.9
	C622,202.1,612.4,187.5,601.8,171.3z M533.9,238c0.4-4.4-1.3-7.8-2.7-10.9c-2.2-4.5,0.1-6.7,2.8-8.7c19.1-13.8,38.3-27.4,57.3-41.4
	c3.4-2.5,4.8-2,7,1.3c15.1,23.2,30.4,46.1,45.3,69.4c4,6.2-4.7,8-5,13.3c-0.1,3-2.2,1.6-3.9,1.2c-32.1-7.4-64.2-14.7-96.2-22.2
	C536.9,239.8,534.2,240.6,533.9,238z M572.7,89.1c0.3,0,1.2,0.1,2,0.2c28.2,1.8,56.4,3.5,84.5,5.6c2.4,0.2,7.3-1.6,6.9,1.4
	c-0.8,6.3,3.6,14.7-1.7,18.8c-21.4,16.3-43.4,31.6-65.1,47.4c-1.7,1.3-3,0.8-3.9-0.5c-10.5-16-22.2-31.2-30.5-48.5
	C562.7,108.3,569.9,97.5,572.7,89.1z M684.7,250.2c-3.7,1.3-11.8-6.3-11.1-10.3c5.8-33.2,11.6-66.3,17.3-99.5
	c0.4-2.5,1.3-4.3,3.6-4.2c4.4,0.4,8-2.1,11.6-3.9c3.6-1.7,6-0.9,8.3,2.3c6.7,9,13.4,18,20.2,26.9c1.3,1.7,2.2,2.9,0.9,4.9
	c-7.2,10.4-7.4,21.6-2.1,33c1.8,3.8,0.1,5.6-2.1,7.7c-11.3,10.5-22.5,21.1-33.7,31.5C693.3,242.6,688.9,246.4,684.7,250.2z
	 M516.2,207.1c0-0.4-0.1-1.1,0.1-1.8c7.1-27.2,14.3-54.3,21.3-81.5c0.4-1.7,1.1-3,2.4-2.7c5.5,1.5,10.1-1.5,14.9-3.4
	c2.4-1,3.8-0.2,5.4,2.2c9.1,14.4,18.3,28.7,27.7,42.9c2.7,4.1,2.5,6-1.7,8.9c-19,13.4-37.8,27.2-56.6,41
	C526.5,215.1,517.5,211.6,516.2,207.1z M1086.7,527.6c1.4-1.3,2.2,1,3.2,1.9c2.3,2.2,4.3,5,7.3,5.7c4.2,1,4.2,4,3.1,7.3
	c-6.7,20.4-13.6,40.8-20.4,61.2c-0.7,2-1.2,4.3-4.1,2.9c-8.7-4.5-16.9-1.6-24.8,2.6c-3.2,1.7-5.3,1.1-7.9-1.7
	c-6.9-7.6-13.9-15-21.4-21.9c-3.3-3-2.7-4.1,0.2-6.3c11.5-8.9,23-17.8,34.4-26.9C1066.4,544.3,1076.3,536.1,1086.7,527.6z
	 M945.2,645.9c-2.1-3.7-0.2-5.7,2.3-7.7c20.6-16.3,41.1-32.7,61.7-49c2.2-1.7,3.9-2.6,6.5,0.2c7.8,8.6,16.1,16.6,24.1,24.9
	c1.8,1.9-2.6,25.4-5,26.3c-1,0.3-2.1,0.1-3.2,0.2c-2.1,0.2-4.2,0.5-6.4,0.7c-24.3,2.7-48.7,5.5-73,8.1
	C949.5,649.9,945.9,650.9,945.2,645.9z M990.8,554.3c0.5-1.5,0.9-3.1,1.5-4.5c2.3-4.9,3.3-10.6,2.1-15.3c-1.7-6.6,1.7-6.9,5.2-7.8
	c8.5-2.2,17.1-4.1,25.6-6.4c17.5-4.6,34.9-9.4,52.4-14c1-0.3,2.4-0.7,3.1-0.2c2.4,1.8,2.5,15.2,0.1,17.1
	c-21.8,17.4-43.6,34.7-65.4,52c-0.8,0.6-2.4,1.4-2.8,1.1C1005.3,569.1,998.2,561.8,990.8,554.3z M767.6,247.6
	c-25.2,5.9-48.6,11.3-71.9,16.8c-2.3,0.5-4.7,3-6.3-1.6c-1.2-3.5-1.4-5.7,1.6-8.4c13.9-12.5,27.7-25.1,41.1-38.2
	c4.9-4.9,8.9-6.7,14.7-2c4.1,3.3,9.4,3.1,14.3,2.5c2.2-0.3,3.4,0,3.8,2.3c1.4,7.7,2.6,15.4,4.2,23
	C769.9,245.9,769.4,247.8,767.6,247.6z M983.8,562.3c2.6-3.6,4-0.7,5.1,0.4c5,4.9,9.6,10.4,14.8,15.1c3.7,3.3,2.1,5.1-0.6,7.3
	c-20,15.7-39.9,31.5-59.9,47.1c-1.8,1.4-3.3,4.2-6.4,0.9c-2.6-2.9-1.5-4.9-0.5-7.5c6.8-18,15.3-35.1,20.7-53.8
	c0.8-2.7,2.1-4.7,5.2-3.9C970.6,570.1,977.2,564.7,983.8,562.3z M776.1,242.5c0.5-3.7-1.4-6.3-2.1-9.3c-2.5-10.6-5.7-21.3,5.9-28.2
	c0.5-0.3,1.2-0.9,1.3-1.5c1.4-5.9,5.2-5.1,9-4.1c11.5,2.8,22.9,5.7,34.4,8.6c14.2,3.6,14.1,3.6,11.5,19.3c-0.4,2.4-0.9,4-3.2,4.6
	c-17.5,4.2-34.9,8.5-52.4,12.7C778.4,245,776.6,245,776.1,242.5z M690.9,795.1c-11.1,4.6-22.4-1.5-26.8-14.4
	c-4.1-12.1,1.3-24.8,12.3-29.4c11.3-4.7,22.6,1.1,26.9,13.9C707.7,777.8,702.5,790.3,690.9,795.1z M1058.2,613.9
	c11.3-4.7,22.6,1.2,26.9,14c4.1,12.3-1,24.9-12,29.5c-11.4,4.8-22.8-0.9-27.1-13.5C1041.7,631.2,1046.8,618.6,1058.2,613.9z
	 M413.6,906.6c4.5,12.9-0.3,25.9-11.1,30.5c-11.2,4.8-23-0.6-27.1-12.2c-4.6-13,0-26.1,10.7-30.7
	C397.6,889.3,409.4,894.6,413.6,906.6z M533,742.8c4.3,12.6-0.9,25.2-12.3,29.9c-11,4.5-22.4-1.3-26.6-13.5
	c-4.4-12.8,0.6-25.4,11.9-30.1C517.4,724.4,528.7,730.1,533,742.8z M959.3,515.2c11.3-4.7,22.5,1.2,26.9,14.1
	c4.1,12.2-1,24.9-12.1,29.5c-11.4,4.8-22.7-1-27-13.6C942.7,532.5,947.9,519.9,959.3,515.2z M388.5,719c-11.3,4.7-22.6-1.2-26.9-14
	c-4.1-12.3,1-25,11.9-29.6c11.4-4.8,22.8,0.9,27.1,13.5C405,701.7,399.9,714.3,388.5,719z M844.7,236.5
	c-4.3-12.7,0.7-25.3,12.1-30.1c11-4.6,22.5,1.1,26.7,13.2c4.4,12.9-0.5,25.6-11.7,30.3C860.4,254.8,849,249.1,844.7,236.5z
	 M325,429.8c-11.4,4.7-22.7-1-27-13.7c-4.2-12.3,0.9-25.1,11.7-29.7c11.5-4.8,22.9,0.7,27.2,13.2C341.3,412.5,336.3,425.1,325,429.8
	z M787.8,412.7c-4.3-12.7,0.7-25.3,12.1-30c11-4.6,22.5,1.1,26.7,13.2c4.4,12.8-0.5,25.6-11.7,30.3
	C803.5,430.9,792.1,425.3,787.8,412.7z M1089.7,515c-4.3-12.6,0.9-25.1,12.5-29.9c10.9-4.5,22.3,1.4,26.5,13.7
	c4.3,12.7-0.9,25-12.1,30.2C1106.5,533.7,1091.6,525.9,1089.7,515z M738.3,193.7c-4.3-12.7,0.8-25.2,12.2-30
	c11.2-4.7,22.4,1.2,26.9,14.1c4.2,12.1-1.1,24.9-12,29.5C753.9,212.1,742.6,206.4,738.3,193.7z M550.5,111.9
	c-11.1,4.6-22.7-1.2-26.9-13.6c-4.3-12.7,0.8-25.3,12.2-30c11-4.6,22.5,1.2,26.7,13.5C566.8,94.5,561.8,107.1,550.5,111.9z
	 M513.3,259.6c-11.5,4.8-22.8-1.1-27.3-14.3c-4-11.6,1.3-24.5,11.9-29c11.5-4.8,22.9,0.7,27.2,13.2
	C529.5,242.2,524.5,254.9,513.3,259.6z M644.7,282.5c-4.2-12.4,0.8-25.2,11.7-29.8c11.8-5,22.9,0.8,27.5,14.1
	c4.1,11.9-1.4,24.8-12.4,29.4C660.5,300.8,648.9,294.8,644.7,282.5z M912.4,635.8c10.4-4.3,22.8,1.1,26.3,11.7
	c4.8,14.2,0.3,26.9-11.1,31.7c-11.5,4.8-22.9-0.8-27.2-13.3C896.1,653.2,901.2,640.5,912.4,635.8z M917.9,100.1
	c-10.9,4.5-22.8-1.3-26.8-13c-4.4-12.9,0.5-25.7,11.5-30.4c11.5-4.8,22.9,0.7,27.2,13.3C934.2,82.7,929.2,95.4,917.9,100.1z
	 M674.5,112.8c-4.3-12.6,1-25.1,12.5-29.9c10.9-4.5,21.8,1.6,26.7,13.6c4.3,10.6-1.5,25.9-12.5,30.3
	C690.3,131.1,678.7,125.2,674.5,112.8z"/>
</svg>
