<?xml version="1.0" encoding="utf-8"?>
<!-- Generator: Adobe Illustrator 21.0.0, SVG Export Plug-In . SVG Version: 6.00 Build 0)  -->
<svg version="1.1" id="Layer_1" xmlns="http://www.w3.org/2000/svg" xmlns:xlink="http://www.w3.org/1999/xlink" x="0px" y="0px"
	 viewBox="0 0 337.2 241.8" style="enable-background:new 0 0 337.2 241.8;" xml:space="preserve">
<style type="text/css">
	.st0{fill:#6D6E70;}
	.st1{fill:#F37541;}
	.st2{fill:#259AD3;}
	.st3{fill:#FFFFFF;}
</style>
<g id="header-logo">
	<g>
		<path class="st0" d="M0.5,232.2l8.8-10.4c5.3,4.1,11.4,5.7,17.2,5.7c2.9,0,4.2-0.8,4.2-2.1v-0.1c0-1.4-1.5-2.2-6.8-3.2
			c-11-2.2-20.7-5.4-20.7-15.8v-0.1c0-9.3,7.3-16.5,20.8-16.5c9.5,0,16.5,2.2,22.1,6.7l-8,11.1c-4.6-3.4-10.2-4.8-14.7-4.8
			c-2.5,0-3.6,0.8-3.6,2v0.1c0,1.3,1.3,2.2,6.5,3.2c12.5,2.3,20.9,6,20.9,15.8v0.1c0,10.3-8.5,16.6-21.6,16.6
			C15.7,240.4,6.7,237.6,0.5,232.2z"/>
		<path class="st0" d="M46.4,215.2v-0.1c0-14.6,11.4-25.6,26.1-25.6c10.8,0,18.1,5.3,22.2,12.7l-13.5,7.9c-1.8-3.5-4.4-6-8.9-6
			c-5.5,0-9.2,4.8-9.2,10.7v0.1c0,6.4,3.8,10.9,9.2,10.9c4.6,0,7.2-2.5,9.2-6.2l13.5,7.6c-4.1,7.3-11,13.2-23.2,13.2
			C58.3,240.6,46.4,230.4,46.4,215.2z"/>
		<path class="st0" d="M94.7,190.5h16.4v17.3h15v-17.3h16.4v49h-16.4v-17.6h-15v17.6H94.7V190.5z"/>
		<path class="st0" d="M143.4,215.2v-0.1c0-14.2,11.7-25.6,26.8-25.6s26.7,11.2,26.7,25.4v0.1c0,14.2-11.7,25.6-26.8,25.6
			C155,240.6,143.4,229.4,143.4,215.2z M180.4,215.2v-0.1c0-5.8-4-11.1-10.3-11.1c-6.2,0-10.2,5.2-10.2,10.9v0.1
			c0,5.8,4,11.1,10.3,11.1C176.5,226.1,180.4,220.9,180.4,215.2z"/>
		<path class="st0" d="M196.8,215.2v-0.1c0-14.2,11.7-25.6,26.8-25.6s26.7,11.2,26.7,25.4v0.1c0,14.2-11.7,25.6-26.8,25.6
			S196.8,229.4,196.8,215.2z M233.8,215.2v-0.1c0-5.8-4-11.1-10.3-11.1c-6.2,0-10.2,5.2-10.2,10.9v0.1c0,5.8,4,11.1,10.3,11.1
			C229.9,226.1,233.8,220.9,233.8,215.2z"/>
		<path class="st0" d="M251.3,190.5h16.4v35h23v14h-39.4L251.3,190.5L251.3,190.5z"/>
		<path class="st0" d="M289.7,232.2l8.8-10.4c5.3,4.1,11.4,5.7,17.2,5.7c2.9,0,4.2-0.8,4.2-2.1v-0.1c0-1.4-1.5-2.2-6.8-3.2
			c-11-2.2-20.7-5.4-20.7-15.8v-0.1c0-9.3,7.3-16.5,20.8-16.5c9.5,0,16.5,2.2,22.1,6.7l-8,11.1c-4.6-3.4-10.2-4.8-14.7-4.8
			c-2.5,0-3.6,0.8-3.6,2v0.1c0,1.3,1.3,2.2,6.5,3.2c12.5,2.3,20.9,6,20.9,15.8v0.1c0,10.3-8.5,16.6-21.6,16.6
			C304.9,240.4,296,237.6,289.7,232.2z"/>
	</g>
	<path class="st1" d="M153.8,1.6c-12.6,0-24.2-0.2-35.8,0.2c-2.6,0.1-5.7,1.7-7.6,3.6C78.6,36.8,47,68.3,15.4,99.9
		c-1.8,1.8-3.7,4.4-3.8,6.6c-0.4,11.2-0.2,22.5-0.2,34.6c32.4,0,63.8,0,96.3,0c0,9.9,0,19,0,28.2c14.6,0,33.6,0,47,0
		C154.4,165.8,153.8,33.2,153.8,1.6z M106.8,96.1c-9.4,0-18.9,0-29,0c10-9.7,19.5-18.8,29-28C106.8,76.6,106.8,86,106.8,96.1z"/>
	<path class="st2" d="M247,0.4c-49.4,0-88.1,37.7-88.1,85.7v0.4c0,48.6,37.7,85.3,87.7,85.3c49.4,0,88.1-37.7,88.1-85.7v-0.4
		C334.7,37.1,297,0.4,247,0.4z M245.8,128.4c-23.4,0-42.3-18.9-42.3-42.3s18.9-42.3,42.3-42.3c23.4,0,42.3,18.9,42.3,42.3
		S269.2,128.4,245.8,128.4z"/>
	<path class="st3" d="M159.9,53.5c18,0.9,34.2,18.6,33.2,36.3c-1,18.7-17.3,33-36.6,32.2c-19-0.8-34.3-17.2-33.1-35.6
		C124.5,67.9,141.6,52.5,159.9,53.5z"/>
	<path class="st0" d="M159.3,72c8.1,0.4,15.5,8.4,15,16.4c-0.5,8.4-7.8,14.9-16.5,14.6c-8.6-0.4-15.5-7.8-15-16.1
		C143.3,78.5,151.1,71.5,159.3,72z"/>
</g>
</svg>
