<?xml version="1.0" encoding="utf-8"?>
<!-- Generator: Adobe Illustrator 21.0.0, SVG Export Plug-In . SVG Version: 6.00 Build 0)  -->
<svg version="1.1" id="Layer_1" xmlns="http://www.w3.org/2000/svg" xmlns:xlink="http://www.w3.org/1999/xlink" x="0px" y="0px"
	 viewBox="0 0 414.4 54" style="enable-background:new 0 0 414.4 54;" xml:space="preserve">
<style type="text/css">
	.st0{fill:#6D6E71;}
	.st1{fill:#F47541;}
	.st2{fill:#259BD4;}
	.st3{fill:#FFFFFF;}
</style>
<g>
	<path class="st0" d="M95.8,42.7l8.3-9.9c5,3.8,10.8,5.4,16.3,5.4c2.8,0,4-0.7,4-2v-0.1c0-1.3-1.5-2.1-6.4-3.1
		C107.5,31,98.4,28,98.4,18.2v-0.1c0-8.8,6.9-15.7,19.7-15.7c9,0,15.6,2.1,21,6.4l-7.6,10.5c-4.4-3.2-9.6-4.6-13.9-4.6
		c-2.3,0-3.4,0.8-3.4,1.9v0.1c0,1.3,1.3,2.1,6.2,3c11.9,2.2,19.8,5.6,19.8,15v0.1c0,9.8-8,15.7-20.5,15.7
		C110.2,50.6,101.7,47.9,95.8,42.7z"/>
	<path class="st0" d="M139.4,26.6v-0.1c0-13.9,10.8-24.2,24.7-24.2c10.2,0,17.1,5,21,12.1l-12.8,7.5c-1.7-3.3-4.2-5.6-8.4-5.6
		c-5.2,0-8.7,4.6-8.7,10.1v0.1c0,6,3.6,10.3,8.7,10.3c4.4,0,6.8-2.4,8.8-5.8l12.8,7.2c-3.9,6.9-10.4,12.5-22,12.5
		C150.6,50.7,139.4,41,139.4,26.6z"/>
	<path class="st0" d="M185.1,3.3h15.5v16.4h14.2V3.3h15.5v46.4h-15.5V33.1h-14.2v16.7h-15.5V3.3z"/>
	<path class="st0" d="M231.2,26.6v-0.1c0-13.5,11.1-24.2,25.4-24.2c14.3,0,25.3,10.6,25.3,24.1v0.1c0,13.5-11.1,24.2-25.4,24.2
		C242.2,50.7,231.2,40.1,231.2,26.6z M266.3,26.6v-0.1c0-5.5-3.8-10.5-9.8-10.5c-5.9,0-9.6,4.9-9.6,10.3v0.1
		c0,5.5,3.8,10.5,9.8,10.5C262.5,37,266.3,32.1,266.3,26.6z"/>
	<path class="st0" d="M281.8,26.6v-0.1c0-13.5,11.1-24.2,25.4-24.2c14.3,0,25.3,10.6,25.3,24.1v0.1c0,13.5-11.1,24.2-25.4,24.2
		C292.7,50.7,281.8,40.1,281.8,26.6z M316.8,26.6v-0.1C316.8,21,313,16,307,16c-5.9,0-9.6,4.9-9.6,10.3v0.1c0,5.5,3.8,10.5,9.8,10.5
		C313.1,37,316.8,32.1,316.8,26.6z"/>
	<path class="st0" d="M333.4,3.3h15.5v33.2h21.8v13.3h-37.3V3.3z"/>
	<path class="st0" d="M370.1,42.7l8.3-9.9c5,3.8,10.8,5.4,16.3,5.4c2.8,0,4-0.7,4-2v-0.1c0-1.3-1.5-2.1-6.4-3.1
		c-10.4-2.1-19.6-5.1-19.6-14.9v-0.1c0-8.8,6.9-15.7,19.7-15.7c9,0,15.6,2.1,21,6.4l-7.6,10.5c-4.4-3.2-9.6-4.6-13.9-4.6
		c-2.3,0-3.4,0.8-3.4,1.9v0.1c0,1.3,1.3,2.1,6.2,3c11.9,2.2,19.8,5.6,19.8,15v0.1c0,9.8-8,15.7-20.5,15.7
		C384.5,50.6,376,47.9,370.1,42.7z"/>
</g>
<path class="st1" d="M40.8,3.7c-3.6,0-6.9-0.1-10.1,0c-0.7,0-1.6,0.5-2.1,1c-9,8.9-18,17.8-26.9,26.8c-0.5,0.5-1.1,1.2-1.1,1.9
	c-0.1,3.2-0.1,6.4-0.1,9.8c9.2,0,18.1,0,27.3,0c0,2.8,0,5.4,0,8c4.1,0,9.5,0,13.3,0C40.9,50.3,40.8,12.7,40.8,3.7z M27.4,30.5
	c-2.7,0-5.4,0-8.2,0c2.8-2.7,5.5-5.3,8.2-7.9C27.4,25,27.4,27.7,27.4,30.5z"/>
<g>
	<path class="st2" d="M67.1,16.1c-6.3,0-11,4.9-11,11.5v0.1c0,6.6,4.8,11.6,11.1,11.6c6.3,0,11-4.9,11-11.5v-0.1
		C78.2,21.1,73.4,16.1,67.1,16.1z"/>
	<path class="st2" d="M67.2,3.4c-14,0-25,10.7-25,24.3v0.1C42.2,41.6,52.9,52,67.1,52c14,0,25-10.7,25-24.3v-0.1
		C92.1,13.8,81.4,3.4,67.2,3.4z M78.2,27.8c0,6.5-4.7,11.5-11,11.5c-6.3,0-11.1-5-11.1-11.6v-0.1c0-6.5,4.7-11.5,11-11.5
		c6.3,0,11.1,5,11.1,11.6V27.8z"/>
</g>
<circle class="st3" cx="66.9" cy="27.7" r="12"/>
<path class="st3" d="M42.5,18.4c5.1,0.3,9.7,5.3,9.4,10.3c-0.3,5.3-4.9,9.4-10.4,9.1c-5.4-0.2-9.7-4.9-9.4-10.1
	C32.5,22.5,37.3,18.2,42.5,18.4z"/>
<path class="st0" d="M42.3,23.7c2.3,0.1,4.4,2.4,4.3,4.6c-0.1,2.4-2.2,4.2-4.7,4.1c-2.4-0.1-4.4-2.2-4.2-4.6
	C37.8,25.5,40,23.6,42.3,23.7z"/>
</svg>
